<?xml version="1.0" encoding="UTF-8"?> <svg xmlns="http://www.w3.org/2000/svg" width="115" height="96" viewBox="0 0 115 96" fill="none"> <path fill-rule="evenodd" clip-rule="evenodd" d="M62.5565 0.00336484C77.2481 0.230657 87.2682 13.2231 96.4673 24.7425C105.722 36.3317 116.429 49.0511 113.33 63.5833C110.201 78.2532 96.0044 87.3389 82.0072 92.5403C69.7063 97.1113 56.5081 94.9453 44.7734 89.0588C33.2812 83.294 23.6889 74.0864 20.3584 61.6155C16.8685 48.5478 19.6789 34.8164 27.3113 23.6725C35.7415 11.3639 47.6941 -0.226569 62.5565 0.00336484Z" fill="#E8F4EE"></path> <mask id="mask0" maskUnits="userSpaceOnUse" x="0" y="0" width="115" height="96"> <path fill-rule="evenodd" clip-rule="evenodd" d="M62.7836 0.00334819C77.5331 0.229516 87.5926 13.1577 96.828 24.6201C106.119 36.152 116.868 48.8085 113.757 63.2688C110.616 77.8661 96.3632 86.9069 82.3109 92.0825C69.9615 96.6309 25.6473 97.9399 13.8664 92.0825C2.32895 86.3462 3.70582 75.678 0.362209 63.2688C-3.14137 50.2658 19.7371 34.6442 27.3996 23.5555C35.863 11.3077 47.8627 -0.225449 62.7836 0.00334819Z" fill="#E8F4EE"></path> </mask> <g mask="url(#mask0)"> <path d="M94.3913 21.1005C91.1853 21.1005 88.246 22.1526 85.6552 24.2277C83.1713 26.2172 81.5176 28.7511 80.5441 30.5936C79.5705 28.7509 77.9168 26.2172 75.433 24.2277C72.8422 22.1526 69.9029 21.1005 66.6969 21.1005C57.7502 21.1005 51.0034 28.6792 51.0034 38.7294C51.0034 49.5871 59.4205 57.0158 72.163 68.2618C74.3268 70.1716 76.7795 72.3364 79.3288 74.6451C79.6648 74.9499 80.0963 75.1177 80.5441 75.1177C80.9918 75.1177 81.4234 74.9499 81.7594 74.6453C84.3089 72.3361 86.7615 70.1715 88.9266 68.2606C101.668 57.0158 110.085 49.5871 110.085 38.7294C110.085 28.6792 103.338 21.1005 94.3913 21.1005Z" fill="#EDA898"></path> <path d="M40.4004 64.1454C38.7516 64.1454 37.24 64.6879 35.9076 65.7579C34.6302 66.7837 33.7797 68.0902 33.279 69.0403C32.7783 68.0902 31.9278 66.7837 30.6504 65.7579C29.318 64.6879 27.8064 64.1454 26.1576 64.1454C21.5565 64.1454 18.0867 68.0532 18.0867 73.2353C18.0867 78.8338 22.4155 82.6642 28.9687 88.4629C30.0816 89.4477 31.3429 90.5639 32.654 91.7544C32.8268 91.9115 33.0487 91.998 33.279 91.998C33.5093 91.998 33.7312 91.9115 33.904 91.7544C35.2152 90.5638 36.4765 89.4476 37.59 88.4623C44.1425 82.6642 48.4713 78.8338 48.4713 73.2353C48.4713 68.0532 45.0016 64.1454 40.4004 64.1454Z" fill="#EDA898"></path> </g> </svg> 